# xmcd CD database file
#
# Track frame offsets:
#	183
#	12098
#	24320
#	33133
#	44865
#	54388
#	64423
#	73860
#	91560
#	103323
#	111393
#	123018
#	132468
#	153043
#	162453
#	173945
#	183388
#	193220
#	205103
#
# Disc length: 2866 seconds
#
# Revision: 0
# Processed by: cddbd v1.5.2PL0 Copyright (c) Steve Scherf et al.
# Submitted via: CDex 2.12
#
DISCID=0a0b3013
DTITLE=Herb Alpert and Tijuana Brass`` - A Arte de Herb Alpert
DYEAR=1988
DGENRE=Jazz
TTITLE0=El Presidente
TTITLE1=A Taste of Honey
TTITLE2=Hello, Dolly
TTITLE3=Casino Raoyale
TTITLE4=Spanish Flea
TTITLE5=Yhe Lonely Bull
TTITLE6=A Banda
TTITLE7=This Guy s In Love With You
TTITLE8=Cabaret
TTITLE9=A Walk In The Black Forest
TTITLE10=The Girl From Ipanema
TTITLE11=What Now My Love
TTITLE12=Zorba The Greek
TTITLE13=South Of The Border
TTITLE14=Whipped Cream
TTITLE15=Tijuaxa Taxi
TTITLE16=I m Getting Sentimental Over You
TTITLE17=Memories of Madrid
TTITLE18=Mexican Shuffle
EXTD=YEAR: 1988
EXTT0=
EXTT1=
EXTT2=
EXTT3=
EXTT4=
EXTT5=
EXTT6=
EXTT7=
EXTT8=
EXTT9=
EXTT10=
EXTT11=
EXTT12=
EXTT13=
EXTT14=
EXTT15=
EXTT16=
EXTT17=
EXTT18=
PLAYORDER=
